<?xml version="1.0" encoding="utf-8"?>
<!-- Generator: Adobe Illustrator 24.2.1, SVG Export Plug-In . SVG Version: 6.00 Build 0)  -->
<svg version="1.1" id="Layer_1" xmlns="http://www.w3.org/2000/svg" xmlns:xlink="http://www.w3.org/1999/xlink" x="0px" y="0px"
	 viewBox="0 0 90 90" style="enable-background:new 0 0 90 90;" xml:space="preserve">
<g>
	<rect x="60" y="60" width="15" height="15"/>
	<rect x="75" y="45" width="15" height="15"/>
	<rect x="45" y="75" width="15" height="15"/>
	<rect x="30" y="60" width="15" height="15"/>
	<rect x="15" y="45" width="15" height="15"/>
	<polygon points="15,60 0,60 0,75 0,90 15,90 30,90 30,75 15,75 	"/>
	<rect x="45" y="45" width="15" height="15"/>
	<rect x="30" y="30" width="15" height="15"/>
	<rect x="60" y="30" width="15" height="15"/>
	<rect x="45" y="15" width="15" height="15"/>
	<rect x="30" width="15" height="15"/>
	<rect x="15" y="15" width="15" height="15"/>
	<rect y="30" width="15" height="15"/>
	<polygon points="75,0 60,0 60,15 75,15 75,30 90,30 90,15 90,0 	"/>
</g>
</svg>
